<svg width="152" height="148" viewBox="0 0 152 148" fill="none" xmlns="http://www.w3.org/2000/svg">
<path d="M62.6406 78.3359H89.3594V87.0078H62.6406V78.3359Z" fill="white"/>
<path d="M123.316 87.0079H98.2656V91.3438C98.2656 93.7399 96.2733 95.6798 93.8125 95.6798H58.1875C55.7267 95.6798 53.7344 93.7399 53.7344 91.3438V87.0079H28.6844C22.9266 87.0079 17.8345 83.4341 16.0115 78.1158L0 31.3374V126.031C0 133.204 5.99316 139.039 13.3594 139.039H138.641C146.007 139.039 152 133.204 152 126.031V31.3408L135.987 78.1158C134.165 83.4341 129.073 87.0079 123.316 87.0079Z" fill="white"/>
<path d="M93.8125 8.96094H58.1875C50.8213 8.96094 44.8281 14.7964 44.8281 21.9688V26.3047H7.66193L24.4574 75.3719C25.0662 77.1458 26.7663 78.3359 28.6844 78.3359H53.7344V74C53.7344 71.6039 55.7267 69.6641 58.1875 69.6641H93.8125C96.2733 69.6641 98.2656 71.6039 98.2656 74V78.3359H123.316C125.234 78.3359 126.934 77.1458 127.543 75.3719L144.339 26.3047H107.172V21.9688C107.172 14.7964 101.179 8.96094 93.8125 8.96094ZM53.7344 26.3047V21.9688C53.7344 19.5761 55.7302 17.6328 58.1875 17.6328H93.8125C96.2698 17.6328 98.2656 19.5761 98.2656 21.9688V26.3047H53.7344Z" fill="white"/>
</svg>
