<svg width="152" height="148" viewBox="0 0 152 148" fill="none" xmlns="http://www.w3.org/2000/svg">
<path d="M29.7255 25.6024C31.1928 26.4064 41.069 31.0521 45.8403 33.2892C45.859 35.0923 45.8999 38.2106 45.9628 38.2635C46.4887 42.7287 47.3914 47.6894 47.6529 49.0902C47.2191 49.3244 44.9894 50.7441 44.9894 55.1598C44.9913 55.1847 44.9936 55.2077 44.9956 55.2329C44.9923 55.3487 44.9894 55.4655 44.9894 55.5854C45.9491 67.8589 50.9622 62.5694 51.996 67.9454C53.7155 76.8841 61.844 83.3512 66.9036 85.5838C69.8279 86.8736 72.8375 87.5315 76.0003 87.5946C79.1632 87.5318 82.1727 86.8736 85.097 85.5838C90.1567 83.3512 98.2852 76.8837 100.005 67.9454C101.038 62.5691 106.052 67.8589 107.012 55.5854C107.012 55.4651 107.008 55.3487 107.005 55.2329C107.007 55.208 107.009 55.185 107.012 55.1598C107.012 50.7438 104.781 49.3244 104.348 49.0902C104.61 47.6894 105.512 42.729 106.038 38.2635C106.1 38.2106 106.142 35.0927 106.16 33.2892C108.781 32.0603 112.94 30.1055 116.402 28.4593V40.3238C115.44 40.8764 114.764 41.8517 114.764 43.0146C114.764 44.0441 115.301 44.9163 116.083 45.4928C116.083 45.4928 114.692 53.1033 114.243 55.3417C113.793 57.5794 122.173 57.1305 121.795 55.3417C121.419 53.5522 119.956 45.4928 119.956 45.4928C120.739 44.9163 121.275 44.0441 121.275 43.0146C121.275 41.8514 120.602 40.8767 119.641 40.3238V26.9091C120.931 26.2861 121.891 25.8123 122.275 25.6024C123.313 25.0336 123.872 24.3058 123.754 23.5497C123.896 22.7614 123.31 21.9141 121.739 21.165C110.526 15.8205 81.9388 2.19877 79.1121 0.885954C77.8788 0.31329 76.8637 0.0602972 76.0003 0C75.1369 0.0602972 74.1219 0.31329 72.8886 0.885954C70.0619 2.19877 41.4746 15.8208 30.2616 21.165C28.6898 21.9141 28.1046 22.7614 28.2468 23.5497C28.1282 24.3058 28.6875 25.0336 29.7255 25.6024Z" fill="white"/>
<path d="M114.058 102.373C108.783 100.521 99.6003 95.1817 98.0269 94.358C97.6193 94.1273 97.1469 93.9927 96.6413 93.9927C95.5374 93.9927 94.5872 94.6234 94.1449 95.5362C89.7953 102.626 81.7313 123.243 76.1048 123.625C76.0704 123.623 76.035 123.616 76.0003 123.612C75.9656 123.616 75.9302 123.623 75.8958 123.625C70.2693 123.243 62.2054 102.626 57.8557 95.5362C57.4131 94.6234 56.4632 93.9927 55.3593 93.9927C54.8534 93.9927 54.3813 94.1273 53.9734 94.358C52.4003 95.1817 43.2177 100.521 37.9425 102.373C20.2353 108.59 12.2713 114.93 12.2713 119.253C12.2713 119.378 12.2713 119.522 12.2713 119.679C12.2713 124.944 12.2713 147.575 12.2713 147.575C12.2713 147.85 12.2713 148 12.2713 148H75.8958H76.0003H76.1048H139.729C139.729 148 139.729 147.85 139.729 147.575C139.729 147.575 139.729 124.943 139.729 119.679C139.729 119.522 139.729 119.378 139.729 119.253C139.729 114.93 131.765 108.59 114.058 102.373Z" fill="white"/>
</svg>
