<svg width="158" height="142" viewBox="0 0 158 142" fill="none" xmlns="http://www.w3.org/2000/svg">
<g clip-path="url(#clip0)">
<path d="M139.896 5.91675H64.1875C57.8346 5.91675 52.6667 10.5613 52.6667 16.2709V54.7293C52.6667 60.4388 57.8346 65.0834 64.1875 65.0834H139.896C146.249 65.0834 151.417 60.4388 151.417 54.7293V16.2709C151.417 10.5613 146.249 5.91675 139.896 5.91675ZM74.0625 39.9376H70.7708C68.0453 39.9376 65.8333 37.9496 65.8333 35.5001C65.8333 33.0506 68.0453 31.0626 70.7708 31.0626H74.0625C76.788 31.0626 79 33.0506 79 35.5001C79 37.9496 76.788 39.9376 74.0625 39.9376ZM102.042 47.3334C94.7803 47.3334 88.875 42.0262 88.875 35.5001C88.875 28.974 94.7803 23.6667 102.042 23.6667C109.303 23.6667 115.208 28.974 115.208 35.5001C115.208 42.0262 109.303 47.3334 102.042 47.3334ZM133.313 39.9376H130.021C127.295 39.9376 125.083 37.9496 125.083 35.5001C125.083 33.0506 127.295 31.0626 130.021 31.0626H133.313C136.038 31.0626 138.25 33.0506 138.25 35.5001C138.25 37.9496 136.038 39.9376 133.313 39.9376Z" fill="white"/>
<path d="M3.23241 71.0119C1.44174 71.0415 -7.62939e-06 72.355 -7.62939e-06 73.9702V127.208C-7.62939e-06 128.841 1.47466 130.167 3.29166 130.167H17.2615C18.7362 130.167 20.0265 129.291 20.4281 128.019L34.997 81.8808C35.9384 78.8988 34.1609 75.763 30.9153 74.7039C24.9508 72.7514 15.8 70.8226 3.23241 71.0119Z" fill="white"/>
<path d="M144.833 103.542C131.667 103.542 105.333 118.517 92.1667 118.517C79 118.517 64.1875 109.458 64.1875 109.458C64.1875 109.458 81.923 112.417 92.1667 112.417C102.41 112.417 105.333 109.275 105.333 105.021C105.333 94.6666 85.7677 93.0573 75.8663 91.7024C66.1493 86.8389 61.0999 82.9931 45.0037 81.7683C44.9115 82.6144 44.7667 83.4546 44.5033 84.2888L31.2774 126.179C46.2545 132.303 72.048 142 85.5833 142C105.333 142 158 118.333 158 112.417C158 106.5 151.417 103.542 144.833 103.542Z" fill="white"/>
</g>
<defs>
<clipPath id="clip0">
<rect width="158" height="142" fill="white"/>
</clipPath>
</defs>
</svg>
