<svg width="152" height="162" viewBox="0 0 152 162" fill="none" xmlns="http://www.w3.org/2000/svg">
<path d="M83.235 62.3882C84.1436 62.3882 85.0194 62.5438 85.8629 62.8031L101.598 42.2462C102.604 40.9322 104.47 40.6902 105.686 41.7967C106.87 42.8513 107.033 44.7359 106.043 46.0153L90.4862 66.3474C91.5406 67.9034 92.1733 69.8227 92.1733 71.8974C92.1733 75.7529 89.9996 79.0897 86.9012 80.5764H147.944C150.183 80.5764 152 78.6402 152 76.2541V21.5337C152 19.1478 150.183 17.2114 147.944 17.2114H70.4034C68.1648 17.2114 66.3479 19.1478 66.3479 21.5337V57.4607L70.0141 62.4055H83.235V62.3882Z" fill="white"/>
<path d="M32.6548 38.7711C41.829 38.7711 49.2661 30.8447 49.2661 21.067C49.2661 11.2892 41.829 3.36279 32.6548 3.36279C23.4807 3.36279 16.0435 11.2892 16.0435 21.067C16.0435 30.8447 23.4807 38.7711 32.6548 38.7711Z" fill="white"/>
<path d="M49.6879 154.315C49.6879 156.701 47.8711 158.637 45.6324 158.637H38.8192C36.5806 158.637 34.7637 156.701 34.7637 154.315V118.077C34.7637 116.797 33.7904 115.76 32.59 115.76C31.3895 115.76 30.4162 116.797 30.4162 118.077V154.142C30.4162 156.615 28.5182 158.637 26.1985 158.637H19.5313C17.2926 158.637 15.4758 156.701 15.4758 154.315L15.4433 66.8314C15.4433 65.6558 14.5511 64.6877 13.4318 64.6877C12.3287 64.6877 11.4203 65.6387 11.4203 66.8314V100.476C11.4203 102.862 9.60342 104.799 7.36478 104.799H4.0555C1.81686 104.799 0 102.862 0 100.476V54.3486C0 48.8679 4.16905 44.4419 9.2952 44.4419H46.2327C50.1907 44.4419 53.9381 46.3783 56.4038 49.6805L66.3315 63.0278L68.4242 65.846C68.4242 65.846 77.8329 65.846 83.2511 65.8632C85.4897 65.8632 87.3066 67.7996 87.3066 70.1855V73.6261C87.3066 76.012 85.4897 77.9484 83.2511 77.9484H65.699C63.9633 77.9484 62.3249 77.1012 61.2542 75.6488L53.857 65.5173C53.4839 64.9986 52.8837 64.6874 52.2672 64.6874H51.7644C50.6613 64.6874 49.753 65.6383 49.753 66.8311L49.6879 154.315Z" fill="white"/>
</svg>
